# xmcd CD database file
#
# Track frame offsets:
#	150
#	7222
#	13102
#	22642
#	28620
#	37532
#	43537
#	51875
#	75172
#	83097
#	94520
#	103120
#	117190
#	125297
#	133185
#	136722
#	149300
#	156305
#	171635
#	182200
#	184475
#	202565
#	212787
#	217167
#	233185
#	241990
#	254832
#	270610
#	282705
#	298257
#
# Disc length: 4284 seconds
#
# Revision: 8
# Processed by: cddbd v1.5.2PL0 Copyright (c) Steve Scherf et al.
# Submitted via: CDex 1.50
#
DISCID=b310ba1e
DTITLE=Saori Kobayashi and Mariko Nanba - Azel - Panzer Dragoon RPG [CD1] 
DYEAR=2001
DGENRE=New Age
TTITLE0=Ecce Valde Generous Ale
TTITLE1=First Battle
TTITLE2=Noble Rebel Army
TTITLE3=A Holy Nation of Deceit
TTITLE4=Solitary Battle
TTITLE5=Wings
TTITLE6=Seperated for Eternity
TTITLE7=Premonition of War
TTITLE8=Mutation
TTITLE9=Chaos Amongst Silence
TTITLE10=Mutation II
TTITLE11=Giant Creature
TTITLE12=Rest
TTITLE13=Breath of Life
TTITLE14=The Blue Ruins
TTITLE15=Wandering
TTITLE16=Forbidden Land
TTITLE17=Pure Blood Seed
TTITLE18=The Black Fleet
TTITLE19=Rendezvous with Destiny
TTITLE20=Atolm Dragon
TTITLE21=Spirit of the Dragon
TTITLE22=Forseen Encounter
TTITLE23=The Empire
TTITLE24=Shellcoof
TTITLE25=Zoah
TTITLE26=Paet's Theme
TTITLE27=Water Ruins
TTITLE28=Ancient Weapon
TTITLE29=Sona Mi Areru Ec Sancitu (Re-arranged)
EXTD=YEAR: 2001
EXTT0=
EXTT1=
EXTT2=
EXTT3=
EXTT4=
EXTT5=
EXTT6=
EXTT7=
EXTT8=
EXTT9=
EXTT10=
EXTT11=
EXTT12=
EXTT13=
EXTT14=
EXTT15=
EXTT16=
EXTT17=
EXTT18=
EXTT19=
EXTT20=
EXTT21=
EXTT22=
EXTT23=
EXTT24=
EXTT25=
EXTT26=
EXTT27=
EXTT28=
EXTT29=
PLAYORDER=
